<?xml version="1.0" encoding="UTF-8" ?>
<!DOCTYPE svg PUBLIC "-//W3C//DTD SVG 1.1//EN" "http://www.w3.org/Graphics/SVG/1.1/DTD/svg11.dtd">
  <svg width="512" height="452.988">
    <path d="M508.486 449.937c-39.637-.085-80.332-.3-123.306-.022-46.533-.094-99.26.008-162.606.151-85.386-.332-219.033-.144-219.033-.144M512 452.895c-40.361-.176-81.4.021-125.032-.127-47.25-.11-100.68.07-164.992-.314-86.252.136-221.976.534-221.976.534m508.471-9.471c-39.468.223-80.227.152-123.216.12-46.532.233-99.345.16-162.928.02-85.215.16-218.737-.023-218.737-.023m508.353 2.89c-40.424-.32-81.853-.497-125.103-.327-47.13-.052-100.418.012-164.771.028-86.352-.028-221.956.376-221.956.376m507.856-9.021c-1.911-.095-4.259-.207-7.309-.195-2.73.02-5.158-.037-4.128.813 6.68 1.847 13.504.76 13.504.76M3.707 437.242c2.218.032 4.69.088 7.759.075 2.796.027 5.244-.042 3.912.842-6.526 1.976-13.455.889-13.455.889m496.875-8.08c-3.253-.035-5.838-.081-7.452.036 3.184 1.458 8.282 2.542 13.46 2.479 1.395-2.037-6.008-2.515-6.008-2.515m-484.854.058c-3.25-.015-6.071.198-8.51.146.039 1.056 1.701 2.248 6.728 2.3 7.811-1.9 1.782-2.446 1.782-2.446m484.223-6.216c-3.437-.109-6.433-.264-8.955-.526.137.321 3.636 1.974 9.496 3.03 4.274-1.24-.541-2.504-.541-2.504m-484.331-.088c3.547-.17 6.857-.149 9.566-.1-.297.19-4.132 1.806-10.04 2.776-4.273-1.375.474-2.676.474-2.676m475.539-6.367c3.542.106 6.579.175 8.777.323.71.278.235 1.552-4.16 2.181-7.84-1.544-4.617-2.504-4.617-2.504m-465.323-.065c-3.543.01-6.827.022-9.536.178-1.117.053-1.527 1.522 2.024 2.544 7.795-1.166 7.512-2.723 7.512-2.723m464.555-6.211c3.017.035 5.384.06 7.256.43-.34 1.27-3.029 1.893-8.454 1.564-6.647-2.217 1.198-1.994 1.198-1.994m-464.017-.017c-3.256.042-5.764.407-7.982.292-.154.846 1.938 1.812 6.985 1.923 7.493-1.918.997-2.215.997-2.215m463.521-6.277c-3.265.007-6.6-.011-9.728-.092-.833-.148 2.202 1.395 8 2.441 5.123-.885 1.728-2.349 1.728-2.349m-463.101-.125c3.665.068 6.933.058 9.477-.085-.514.466-4.443 1.817-10.185 2.538-4.374-1.2.707-2.453.707-2.453m452.88-6.179c3.51.097 6.839-.03 9.342.049.642.331.406 1.454-3.89 2.08-7.59-1.263-5.452-2.129-5.452-2.129m-443.132-.05c-3.568.007-6.835.029-9.502.01-.476.422-.497 1.605 2.681 2.203 7.866-.976 6.821-2.213 6.821-2.213m443.155-6.273c2.723.23 5.22.103 7.144.239-.593 1.016-3.556 1.714-8.9 1.395-6.24-1.98 1.756-1.634 1.756-1.634m-443.104-.024c3.32.01 6.04-.038 8.083 0-3.09 1.08-7.938 1.947-13.032 1.984-2.746-1.745 4.95-1.984 4.95-1.984m442.561-6.208c2.013.244 3.004.451 3.35 1.262-2.074.66-6.298.713-11.735-.787-1.294-.87 8.384-.475 8.384-.475m-442.622-.079c3.5-.077 6.8-.119 9.767-.11 1.008-.05-1.942 1.279-7.662 2.028-5.583-.688-2.105-1.918-2.105-1.918m433.133-6.481c3.425.055 6.353.24 8.687.31.19.613-.558 1.461-5.13 1.82-7.69-1.353-3.557-2.13-3.557-2.13m-423.17.072c-3.583-.003-6.635.03-8.93.397-.658.271-.166 1.1 4.205 1.624 7.812-1.17 4.725-2.021 4.725-2.021m423.13-6.191c-3.398-.077-6.65-.153-9.053-.133 1.517.642 5.808 1.636 11.438 2.033 3.707-1.29-2.385-1.9-2.385-1.9m-423.024-.033c3.506-.089 6.456-.19 8.38-.266-1.835.998-6.12 1.929-11.512 1.986-3.457-.935 3.132-1.72 3.132-1.72m422.3-6.293c1.932.072 2.654.433 2.433 1.26-2.477.44-6.603.176-12.157-.627-.3-.842 9.724-.632 9.724-.632m-422.067.108c3.183-.17 6.414-.21 9.417-.34 1.704-.166-.268.822-5.498 1.895-6.223-.435-3.92-1.555-3.92-1.555m412.122-6.54c3.515.099 6.345.223 8.321.245.492.368-.676 1.17-5.24 1.415-7.418-1.248-3.082-1.66-3.082-1.66m-401.575.074c-3.536.061-6.482.276-8.863.279-.78.175-.025 1.092 4.436 1.545 7.686-1.17 4.427-1.824 4.427-1.824M457 355.418c-3.555-.19-6.498-.286-8.735-.297 1.245.534 5.153 1.54 10.5 1.776 4.377-1.012-1.765-1.479-1.765-1.479m-401.461-.211c3.356-.058 6.117-.195 8.494-.28-1.95.51-5.844 1.724-11.003 2.08-4.067-1.168 2.509-1.8 2.509-1.8m391.475-6.426c3.036.099 6.205.121 9.646.114 2.102.01 2.366.747-.626 1.629-7.467-.33-9.02-1.743-9.02-1.743m-381.728.101c1.849-.093 2.138.186-.846.998-4.332.65-8.417.633-11.211-.355 1.696-.606 12.057-.643 12.057-.643m382.33-6.197c3.324-.028 6.164-.105 8.01-.05-.326.687-2.804 1.287-8.003 1.266-6.732-1.358-.007-1.216-.007-1.216m-382.033-.07c2.557-.22 4.722-.305 5.387.057-3.438.744-8.066 1.365-12.74 1.163-1.326-1.05 7.353-1.22 7.353-1.22m381.511-6.361c2.575.018 4.103-.002 4.859.582-1.635.784-5.37.974-10.982.474-3.522-1.12 6.123-1.056 6.123-1.056m-381.284.011c3.493-.097 6.712-.11 9.278-.047-1.087.479-5.023 1.159-10.651 1.352-3.982-.478 1.373-1.305 1.373-1.305m371.28-6.313c-2.092-.162-3.406-.166-1.694.505 3.983.748 8.627 1.043 12.236.432-.616-.853-10.543-.937-10.543-.937M75.687 329.9c-3.467.148-6.765.112-9.904.078-1.07.3-1.495.888 2.156 1.32 7.184-.484 7.748-1.398 7.748-1.398m361.213-6.2c-3.2.024-5.947-.08-7.906-.11 3.186.701 7.776 1.23 12.352 1.287 3.13-.897-4.447-1.177-4.447-1.177m-361.071-.057c-3.274.067-5.766.199-8.065.26.325.405 2.487.982 7.361.99 7.178-.98.704-1.25.704-1.25m360.939-6.216c-3.389-.063-6.525-.125-9.245-.308-.435.145 1.91 1.063 7.608 1.502 5.35-.572 1.637-1.194 1.637-1.194m-361.024-.132c3.605-.02 6.84.003 9.555.012.13.139-3.287.949-9.032 1.407-4.628-.718-.523-1.42-.523-1.42m351.513-6.268c3.43.02 6.481.03 8.99.21.56.03-.321.694-4.797 1.057-7.26-.866-4.193-1.267-4.193-1.267m-341.291-.064c-3.562.092-6.85.127-9.559.36-.975.057-.97.482 3.048.834 7.226-.765 6.511-1.194 6.511-1.194m340.868-6.186c2.973-.012 5.298-.076 6.988.18-1.162.657-3.898.84-9.166.71-5.876-1.019 2.178-.89 2.178-.89m-340.323-.001c-3.052.157-5.931.215-8.165.132.824.587 3.253.716 7.948.703 6.692-1.029.217-.835.217-.835m339.48-6.29c-3.542-.007-6.769-.034-9.443-.21-.613-.038 2.102.542 7.35.996 5.333-.346 2.093-.786 2.093-.786m-339.93-.03c3.54.033 6.786.056 9.513-.015.892-.107-1.765.45-7.487.822-5.405-.292-2.026-.807-2.026-.807m330.56-6.303c3.541.029 6.696-.032 9.14-.057-.013.248-1.43.722-5.836.722-6.935-.784-3.304-.665-3.304-.665m-320.045-.033c-3.6.138-6.664.273-9.153.26-.905-.02-.358.637 3.549.74 6.91-.74 5.604-1 5.604-1m319.485-6.301c3.027.032 5.37-.009 6.968.076-1.136.451-4.26.675-9.493.36-6.14-.498 2.525-.436 2.525-.436m-319.366-.11c3.232-.03 5.938-.122 7.96-.128-2.674.284-6.992.951-11.92.923-3.635-.66 3.96-.795 3.96-.795m319.142-6.163c2.12.03 3.019.017 2.614.402-2.47.236-6.869.284-12.187-.247-.802-.193 9.573-.155 9.573-.155m-317.633-.028c3.554.029 6.696-.001 9.346-.004-.58.052-4.003.336-9.557.754-4.916-.423.21-.75.21-.75m307.83-6.345c3.506.058 6.52.104 8.857.124.094.044-1.428.34-6.207.451-7.383-.427-2.65-.575-2.65-.575m-299.372.028c-3.597-.049-6.712-.038-9.305-.057-.378.087 1.019.463 5.566.68 7.232-.347 3.738-.623 3.738-.623m299.323-6.288c-3.53-.043-6.686-.05-8.984-.109 1.312.196 4.895.46 10.385.588 4.355-.309-1.4-.479-1.4-.479m-299.151.011c3.38-.075 6.064-.189 8.498-.168-1.742.351-5.747.37-11.031.647-4.3-.386 2.533-.479 2.533-.479m298.719-6.304c1.84-.012 2.372.138 1.64.272-3.01.092-7.413.058-12.541-.17.163-.228 10.901-.102 10.901-.102m-298.766-.057c3.172-.12 6.466-.104 9.635-.155 2.158.166.455.39-4.745.368-6.211.132-4.89-.213-4.89-.213m288.517-6.269c3.264.067 6.2.193 8.603.313-.108-.051-1.717-.116-6.508-.14-6.896-.291-2.095-.173-2.095-.173m-278.408-.083c-3.492.125-6.734.043-9.12.048.545.156 2.394.336 6.919.369 6.524-.542 2.2-.417 2.2-.417m278.282-6.164c-3.373-.105-6.497-.162-8.786-.266.92.104 4.338.218 9.737.454 4.472-.099-.951-.188-.951-.188m-277.686-.092c3.476-.077 6.393-.194 8.66-.144-1.524.223-5.305.353-10.782.243-4.316-.084 2.122-.099 2.122-.099m267.418-6.389c3.309.065 6.672.154 9.723.198 2.096-.123 2.072-.074-1.556-.017-7.04-.206-8.167-.18-8.167-.18m-257.75-.067a488 488 0 0 0-9.985.164c-1.947-.091-1.813-.01 1.686.163 6.992-.22 8.3-.327 8.3-.327m258.527-6.129c3.116.048 5.957-.098 7.968.16-.833-.05-3.474-.185-8.713-.285-6.105-.201.745.125.745.125m-258.52-.023c-3.517-.05-6.405-.056-8.421.227.69.2 2.82.044 7.63-.297 6.767-.093.79.07.79.07m257.896-6.297c2.435.043 3.74.015 4.468.05-1.74-.088-5.69-.021-11.048-.11-2.927-.11 6.58.06 6.58.06m-255.614.012c3.302-.13 6.103-.115 8.25-.079-2.44.042-6.652.041-11.45.11-3.771.312 3.2-.031 3.2-.031m246.66-6.382c3.39.041 6.629-.04 9.265.019.339.05-.928-.008-5.37-.162-6.97-.097-3.895.143-3.895.143m-238.612-.113c-3.3.132-6.595.158-9.51.289-1.287.029-.79-.12 2.683-.236 7.131.024 6.827-.053 6.827-.053m237.473-6.247c-3.073.07-5.605-.033-7.601-.196 2.483-.16 6.717.007 11.84.13 3.6.151-4.239.066-4.239.066m-237.319.018c-3.359.026-6.207.041-8.243.057.84-.06 3.27-.16 8.466-.053 6.344-.12-.223-.004-.223-.004m237.247-6.252c2.115.128 3.053.306 3.378.078-2.082-.243-6.176-.458-11.657-.286-1.475-.104 8.279.208 8.279.208m-235.315.004c3.504.024 6.396.04 8.34-.244-1.547.022-5.182.054-10.446-.04-4.247.376 2.105.284 2.105.284m224.614-6.37c3.626.004 6.816-.042 9.189.043.72.31.385-.111-3.675-.394-7.18.195-5.514.351-5.514.351m-46.018-.164c-1.86.065-3.357.032-4.365.022 1.864-.07 4.866-.258 8.26-.096 1.96.04-3.895.074-3.895.074m-124.27.207c-1.699.063-2.724.05-2.946-.12 1.557-.15 4.305-.21 7.691-.203 1.843.273-4.745.323-4.745.323m-46.201-.01c-3.515.098-6.752.063-9.401.081-.634.007.095-.255 4.153-.44 6.81-.084 5.248.359 5.248.359m109.91-.178c.712.016 1.207.036 1.384.032-.562-.042-1.613-.073-2.933-.067-.749.07 1.55.035 1.55.035m107.359-6.136c3.033.024 5.4.004 6.474.057-1.124-.201-4.358-.462-9.477-.447-5.281.314 3.003.39 3.003.39m-41.281-.066c-4.904-.011-9.47.012-13.875-.148-1.097.148 2.259-.097 9.623-.344 9.13.208 4.252.492 4.252.492m-62.593-.093c-3.377.163-6.689.114-9.894.092-1.175-.206-.034-.257 4.664-.255 6.886.067 5.23.164 5.23.164m-60.988.248c-4.763-.2-9.163-.247-13.3-.582-1.119-.006 1.327.025 7.961-.027 9.406.008 5.339.609 5.339.609m-51.676-.091c-3.199.106-6.01.233-8.044.244.769-.362 3.543-.588 8.589-.691 6.259.305-.545.447-.545.447m215.824-6.304a711 711 0 0 0-9.808-.04c-1.083-.044 1.224-.384 6.561-.489 5.896.26 3.247.529 3.247.529m-30.921-.26c1.508.109.006-.253-6.535-.237-7.666.036-16.633.006-22.947.193 7.7.146 29.482.044 29.482.044m-71.985.231c-5.523-.078-10.991-.01-16.012-.44-.461.3 3.666-.052 12.323-.128 11.08.354 3.689.568 3.689.568m-51.666-.215c-6.407.19-13.099.193-20.117.233-7.11-.01-9.254.04-3.175-.402 14.21-.15 23.292.169 23.292.169m-60.518.191c3.59.065 6.813.01 9.377-.065-.449-.079-3.565-.403-8.683-.446-5.237.449-.694.511-.694.511m205.175-6.284c3.52.021 6.673.12 9.323.148-.036-.07-1.545-.606-6.18-.716-6.886.393-3.143.568-3.143.568m-20.975.059c4.09.03 7.583-.04 10.119-.036-1.573-.317-5.589-.58-12.147-.562-7.321.502 2.028.598 2.028.598m-30.65-.159c3.922.17 7.633.163 10.854.17-.623-.255-3.772-.503-9.924-.612-7.79.202-.93.442-.93.442m-31.3.068c-7.503.03-14.603.043-21.295.013-8.636-.082-9.988-.16-1.056-.522 14.399-.019 22.351.51 22.351.51m-61.253.056c-3.877.112-7.294-.01-9.783-.063 1.988-.27 6.29-.53 12.801-.48 6.57.29-3.018.543-3.018.543m-30.748-.109c4.302.09 8.02.115 11.254.072-1.31-.248-5.332-.471-11.85-.643-6.838.459.596.571.596.571m-20.927.047c-3.575.049-6.834.055-9.586.012-.743-.052.348-.435 4.822-.586 7.218.4 4.764.573 4.764.573m196.175-6.271c3.999-.025 5.06.023 2.229-.67-6.817.104-14.812.066-23.39.359 1.722.427 21.161.31 21.161.31m-51.8.011c2.91.182 4.047.22 3.241-.289-3.724-.368-9.18-.482-15.046-.083-.827.375 11.805.372 11.805.372m-31.144.004c4.125.024 8.08.056 11.385.057-.256-.253-3.221-.66-9.295-.814-7.787.559-2.09.757-2.09.757m-30.477-.048c-4.007-.062-7.765.006-10.984.182 1.326-.378 5.218-.716 11.625-.775 7.1.511-.64.55-.64.55m-21.332-.028a97 97 0 0 0-11.209.616c-.35-.023 1.636-1.01 7.505-1.224 8.142.456 3.704.608 3.704.608m-41.222.147c-6.462.032-12.843.029-19.185.006-6.013-.045-6-.375 1.627-.512 13.366-.226 17.558.505 17.558.505m175.181-6.376c2.073.185 2.424.151.99-.52-4.69-.239-10.686-.176-16.593.267 1.63.284 15.603.253 15.603.253m-61.004.083c4.77-.033 6.678.339 5.719-.487-6.432-.267-14.277-.317-23.142-.308-1.413.85 17.424.795 17.424.795m-62.078-.085c-5.85.097-11.348-.013-16.41.089 1.25-.443 6.64-.64 15.85-.837 11.383.46.56.748.56.748m-61.476.069c4.61-.019 7.637.027 8.188-.283-4.743-.38-11.088-.613-18.155-.473-3.572.84 9.967.756 9.967.756m174.858-6.346c3.53.033 6.546.085 8.767.143-.359-.31-2.529-.653-7.233-.914-6.63.528-1.534.771-1.534.771m-52.269.29c2.182-.192 2.602-.446.548-.88a60.3 60.3 0 0 0-13.293.76c.711-.157 12.745.12 12.745.12m-61.356-.307c-3.967-.036-7.424-.046-10.181.119.269-.235 2.917-.761 8.494-.863 6.783.558 1.688.744 1.688.744m-61.9-.067c-3.627.003-6.824.077-9.316.149.259-.123 1.797-.64 6.546-.914 6.951.48 2.77.764 2.77.764m175.352-6.25c-3.508-.018-6.548.047-9.013.04.837-.32 4.046-.73 9.324-.862 5.163.574-.311.822-.311.822m-175.371.028c3.501.037 6.463-.006 8.813-.006-1.465-.337-5.122-.817-10.393-.895-4.343 1.082 1.58.9 1.58.9m117.669.374c1.145-.032 2.09-.03 2.737-.073-.555-.264-1.767-.45-3.647-.36-1.885.375.91.432.91.432m-55.778-.518c-.923-.165-2-.27-3.351-.273-.965.172-1.296.403-.58.413 2.428-.002 3.931-.14 3.931-.14m112.001-6.011c2.02.132 3.066.089 2.36-.386-2.808-.669-6.92-.774-11.394-.504-.524.531 9.034.89 9.034.89m-173.496-.084c-1.943.128-2.319.15-1.402-.428 2.675-.612 6.963-.723 11.453-.146.168.543-10.05.574-10.05.574m164.466-6.539c3.41.066 6.168.308 8.311.436-.614-.335-2.512-1.108-7.22-1.408-6.502.686-1.091.972-1.091.972m-154.811.253c-3.453.015-6.536-.048-8.851-.027.492-.414 2.939-.943 7.679-1.122 6.14.468 1.172 1.148 1.172 1.148m154.974-6.307c-3.521-.031-6.456-.2-8.738-.27.017-.137 2.626-.78 7.935-.996 5.399.684.803 1.266.803 1.266m-154.327-.166c3.495-.088 6.442.005 8.622-.123-.902-.288-4.287-.836-9.592-.956-4.934.885.97 1.079.97 1.079m144.475-6.374c-1.95-.206-2.787-.254-1.518-.867 3.12-.175 7.484-.297 11.567.23-.305 1.013-10.049.637-10.049.637m-135.062.041c1.953-.113 2.304-.368.303-.92-3.218-.286-7.529-.31-11.439.473 1.22.72 11.136.447 11.136.447m135.124-6.249c3.267.02 5.97-.015 7.796.074-1.194-.585-4.56-1.104-9.718-1.386-5.433 1.01 1.922 1.312 1.922 1.312m-134.779.036c-3.399.033-6.41.005-8.388.074.786-.566 3.355-1.239 8.377-1.483 5.86.628.011 1.41.011 1.41m134.141-6.287c2.544.007 4.03-.045 4.237-.546-2.298-.736-6.548-1.032-11.646-.572-2.116.946 7.408 1.118 7.408 1.118m-134.039.096a608 608 0 0 1 9.148-.311c-.156-.406-2.527-.912-7.661-1.132-5.868.662-1.486 1.443-1.486 1.443m124.903-6.475c3.627-.02 6.838-.015 9.334.08-.04-.207-1.666-1.157-6.338-1.601-6.438.872-2.996 1.521-2.996 1.521m-114.694.025c-3.377-.004-6.538.012-9.46.09-1.617.019-.844-.899 3.559-1.618 6.89.568 5.901 1.527 5.901 1.527m113.72-6.286c-3.138-.061-5.395-.212-7.391-.287 1.808-.686 5.35-1.152 10.72-1.193 3.915 1.556-3.329 1.48-3.329 1.48m-113.65-.083c-3.309.005-5.999.093-8.006.236 1.07-.774 3.954-1.554 8.962-1.685 5.683.943-.955 1.45-.955 1.45m113.517-6.135c2.225.017 2.972.053 2.697-.59-2.568-.626-6.482-1.202-11.194-.736-1.45 1.074 8.497 1.326 8.497 1.326m-113.583-.049c3.455-.153 6.796-.17 9.563-.224.465-.193-1.689-1.184-6.636-1.524-5.9 1.022-2.927 1.748-2.927 1.748m102.991-6.434c3.531.028 6.75.115 9.722.11.653-.197-.834-1.106-5.33-1.838-6.743.789-4.392 1.728-4.392 1.728m-92.682-.033c-3.522.11-6.792.198-9.737.093-.719-.248.866-1.074 5.447-1.759 6.614.814 4.29 1.667 4.29 1.667m93.372-6.243c2.85 0 5.12.118 6.647.037-1.748-1.168-5.436-1.765-10.576-1.611-4.357 1.205 3.929 1.574 3.929 1.574m-92.826.028c-3.138-.059-5.887-.04-7.8.237.997-1.075 4.173-1.938 9.535-1.98 5.335 1.415-1.734 1.743-1.734 1.743m92.331-6.298c-3.48-.068-6.803-.098-9.861-.077-1.214-.014.242-1.22 5.102-1.825 6.25.894 4.76 1.902 4.76 1.902m-92.598.114c3.46-.112 6.73-.239 9.323-.276.736-.323-.798-1.182-5.55-1.742-6.04 1.167-3.773 2.018-3.773 2.018m82.475-6.469c3.565.018 6.712-.032 9.23.077.025-.372-2.333-1.487-7.012-2.017-5.774.648-2.218 1.94-2.218 1.94m-72.549-.049c-3.489-.047-6.593-.018-8.954.197-.073-.17 1.614-1.29 6.07-2.247 6.455 1.1 2.884 2.05 2.884 2.05m72.356-6.254c-3.285-.088-6.338.054-8.53-.268 1.38-.778 4.524-1.639 9.627-1.721 5.076 1.56-1.097 1.988-1.097 1.988m-71.847-.029c3.27-.04 6.146.022 8.343-.051-1.867-1.005-5.494-1.8-10.7-1.88-4.743 1.768 2.358 1.93 2.358 1.93m71.656-6.264c2.11-.005 2.83-.244 1.536-1.398-3.429-.665-7.723-.834-12.205.259.465.998 10.67 1.139 10.67 1.139m-70.446-.018c3.525-.003 6.75-.04 9.603 0 .25-.278-2.395-1.626-7.148-2.18-6.142 1.165-2.455 2.18-2.455 2.18m60.66-6.375c3.413.167 6.44.28 8.96.118-.664-.77-3.253-1.88-8.327-2.344-6.064 1.56-.633 2.226-.633 2.226m-52.022-.016c-3.49.107-6.531.166-8.965.259.172-.626 2.457-1.928 7.333-2.49 6.194 1.434 1.631 2.23 1.631 2.23m51.954-6.229c-3.474-.111-6.671-.127-9.055-.111.806-.596 3.504-1.788 8.425-2.2 5.572 1.657.63 2.31.63 2.31m-51.653-.068c3.419-.06 6.26-.068 8.594-.057-.947-.731-4.048-1.862-9.206-1.968-5.424 1.43.612 2.025.612 2.025m49.683-6.145c2.21.01 2.805.077 2.382-1.006-2.635-1.155-6.819-1.56-11.364-.866-.77 1.431 8.982 1.872 8.982 1.872m-41.103-.116c2.307-.057 3.315-.127 2.5-1.254-3.089-.835-7.4-.994-11.735-.062-.865 1.505 9.235 1.316 9.235 1.316m32.267-6.298c3.478.038 6.29.062 8.642.154-.79-.877-3.586-2.04-8.496-2.676-5.71 1.689-.146 2.522-.146 2.522m-30.903.028c-3.516-.018-6.502.004-8.507.26.552-.944 3.202-2.348 8.31-2.816 6.074 1.76.197 2.556.197 2.556m31.035-6.367c-3.532.04-6.824.066-9.319-.016.474-.687 3.136-2.014 8.062-2.637 5.58 1.984 1.257 2.653 1.257 2.653m-30.297.021c3.582.02 6.589.036 8.925-.069-.864-.74-3.85-2.108-9.11-2.537-5.089 2.146.185 2.606.185 2.606m19.971-6.245c3.404-.022 6.617.007 9.825.04 1.533.016.458-1.48-3.7-2.71-6.914.749-6.125 2.67-6.125 2.67m-10.247-.041c2.161.092 2.734-.145 1.175-1.6-3.462-.98-7.905-1.127-11.872.399.144 1.216 10.697 1.201 10.697 1.201m10.98-6.304c4.52-.078 6.638-.09 4.83-2.05-5.97-.477-12.945-.865-20.55-.002-1.216 2.093 15.72 2.053 15.72 2.053m.021-6.415c-4.335-.092-8.646.035-12.735.237-2.126.061-.813-1.47 4.312-2.99 9.252.551 8.423 2.753 8.423 2.753m-7.541-6.247c2.91-.1 5.484-.065 7.542.014-.526-.79-2.743-2.234-6.931-2.747-4.766 1.742-.611 2.733-.611 2.733m-1.418-6.361c.627-.692 1.524-1.286 2.826-1.698 1.52.404 2.77 1.15 2.742 1.723-2.265.106-5.568-.025-5.568-.025" stroke="white" stroke-width="5" fill="black"/>
  </svg>
